<svg width="167" height="44" viewBox="0 0 167 44" fill="none" xmlns="http://www.w3.org/2000/svg">
<rect width="167" height="44" rx="8" fill="#B4A9FF"/>
<path d="M36 22L31.2859 26.7141L30.1074 25.5355L33.643 22L30.1074 18.4645L31.2859 17.286L36 22ZM18.357 22L21.8926 25.5355L20.714 26.7141L16 22L20.714 17.286L21.8926 18.4645L18.357 22ZM24.157 29.5H22.3834L27.843 14.5H29.6166L24.157 29.5Z" fill="black"/>
<path d="M48.98 17.914H51.164V21.498C51.5747 21.498 51.906 21.4233 52.158 21.274C52.41 21.1153 52.6853 20.8167 52.984 20.378L54.692 17.914H57.142L55.182 20.644C54.8833 21.064 54.608 21.386 54.356 21.61C54.1133 21.8247 53.81 22.002 53.446 22.142V22.17C53.9127 22.282 54.3 22.4827 54.608 22.772C54.9253 23.0613 55.2333 23.4813 55.532 24.032L57.142 27H54.692L53.208 24.326C53.012 23.9713 52.8207 23.7053 52.634 23.528C52.4567 23.3413 52.256 23.2153 52.032 23.15C51.808 23.0847 51.5187 23.052 51.164 23.052V27H48.98V17.914ZM61.3178 27.14C60.8978 27.14 60.5525 27.126 60.2818 27.098C60.0112 27.07 59.7218 27.014 59.4138 26.93C59.0778 26.8367 58.8072 26.706 58.6018 26.538C58.3965 26.3607 58.2238 26.1133 58.0838 25.796C57.9438 25.488 57.8738 25.1147 57.8738 24.676V22.674C57.8738 22.226 57.9438 21.834 58.0838 21.498C58.2238 21.162 58.4058 20.9007 58.6298 20.714C58.8258 20.5553 59.0825 20.4247 59.3998 20.322C59.7265 20.21 60.0438 20.14 60.3518 20.112C60.7065 20.0933 61.0285 20.084 61.3178 20.084C61.7472 20.084 62.0878 20.098 62.3398 20.126C62.6012 20.1447 62.8858 20.2007 63.1938 20.294C63.5298 20.3967 63.8005 20.5367 64.0058 20.714C64.2205 20.8913 64.4025 21.1433 64.5518 21.47C64.6918 21.806 64.7618 22.2073 64.7618 22.674V24.676C64.7618 25.096 64.6918 25.4647 64.5518 25.782C64.4212 26.0993 64.2485 26.3467 64.0338 26.524C63.8472 26.6827 63.5905 26.8133 63.2638 26.916C62.9465 27.0093 62.6338 27.07 62.3258 27.098C62.0458 27.126 61.7098 27.14 61.3178 27.14ZM61.3178 25.866C61.7005 25.866 61.9898 25.838 62.1858 25.782C62.3818 25.7167 62.5172 25.6187 62.5918 25.488C62.6758 25.3573 62.7178 25.166 62.7178 24.914V22.352C62.7178 21.9787 62.6198 21.7173 62.4238 21.568C62.2278 21.4187 61.8592 21.344 61.3178 21.344C60.7765 21.344 60.4078 21.4187 60.2118 21.568C60.0158 21.7173 59.9178 21.9787 59.9178 22.352V24.914C59.9178 25.166 59.9552 25.3573 60.0298 25.488C60.1138 25.6187 60.2538 25.7167 60.4498 25.782C60.6458 25.838 60.9352 25.866 61.3178 25.866ZM66.355 20.224H68.959L70.611 24.9L72.361 20.224H74.825V27H72.977V22.632H72.893L71.255 27H69.813L68.231 22.632H68.147V27H66.355V20.224ZM76.6226 20.224H79.2266L80.8786 24.9L82.6286 20.224H85.0926V27H83.2446V22.632H83.1606L81.5226 27H80.0806L78.4986 22.632H78.4146V27H76.6226V20.224ZM90.2921 27.14C87.8935 27.14 86.6941 26.4073 86.6941 24.942V22.506C86.6941 21.6567 86.9648 21.0407 87.5061 20.658C88.0568 20.2753 88.9015 20.084 90.0401 20.084C91.1135 20.084 91.8975 20.2707 92.3921 20.644C92.8961 21.008 93.1481 21.6287 93.1481 22.506V24.158H88.7521V24.774C88.7521 25.166 88.8921 25.446 89.1721 25.614C89.4521 25.782 89.9561 25.866 90.6841 25.866C91.3561 25.866 92.1121 25.768 92.9521 25.572V26.874C92.1215 27.0513 91.2348 27.14 90.2921 27.14ZM91.2021 22.996V22.016C91.2021 21.792 91.1088 21.624 90.9221 21.512C90.7448 21.4 90.4415 21.344 90.0121 21.344C89.5175 21.344 89.1861 21.4 89.0181 21.512C88.8408 21.6333 88.7521 21.8013 88.7521 22.016V22.996H91.2021ZM94.7105 20.224H96.7545V22.828H99.3165V20.224H101.36V27H99.3165V24.172H96.7545V27H94.7105V20.224ZM104.77 21.568H102.53V20.224H109.054V21.568H106.814V27H104.77V21.568ZM112.146 27.14C111.511 27.14 111.035 27.084 110.718 26.972C110.41 26.8507 110.191 26.6407 110.06 26.342C109.939 26.034 109.878 25.5767 109.878 24.97C109.878 24.4287 109.943 24.004 110.074 23.696C110.214 23.388 110.433 23.1687 110.732 23.038C111.04 22.898 111.46 22.828 111.992 22.828H114.288V22.366C114.288 22.0767 114.246 21.862 114.162 21.722C114.087 21.582 113.943 21.484 113.728 21.428C113.523 21.372 113.21 21.344 112.79 21.344C112.211 21.344 111.418 21.4 110.41 21.512V20.224C111.147 20.1307 112.011 20.084 113 20.084C113.868 20.084 114.535 20.1493 115.002 20.28C115.478 20.4107 115.819 20.6347 116.024 20.952C116.229 21.2693 116.332 21.7313 116.332 22.338V27H114.33V26.384C114.171 26.6547 113.957 26.846 113.686 26.958C113.415 27.0793 112.902 27.14 112.146 27.14ZM112.944 25.866C113.355 25.866 113.649 25.852 113.826 25.824C113.957 25.8053 114.045 25.7773 114.092 25.74C114.148 25.7027 114.195 25.642 114.232 25.558C114.269 25.4927 114.288 25.3947 114.288 25.264V23.948H112.888C112.571 23.948 112.347 23.9713 112.216 24.018C112.085 24.0553 111.997 24.1393 111.95 24.27C111.903 24.3913 111.88 24.6107 111.88 24.928C111.88 25.236 111.903 25.4507 111.95 25.572C111.997 25.6933 112.085 25.7727 112.216 25.81C112.356 25.8473 112.599 25.866 112.944 25.866ZM118.13 20.224H120.062V20.896C120.184 20.5973 120.422 20.3873 120.776 20.266C121.131 20.1447 121.658 20.084 122.358 20.084C122.946 20.084 123.418 20.1307 123.772 20.224C124.136 20.3173 124.412 20.4667 124.598 20.672C124.776 20.8773 124.897 21.106 124.962 21.358C125.028 21.6007 125.06 21.9367 125.06 22.366V24.592C125.06 25.264 124.962 25.782 124.766 26.146C124.57 26.51 124.267 26.7667 123.856 26.916C123.455 27.0653 122.904 27.14 122.204 27.14C121.532 27.14 121.047 27.084 120.748 26.972C120.45 26.86 120.258 26.6407 120.174 26.314V29.912H118.13V20.224ZM121.574 25.866C121.976 25.866 122.279 25.838 122.484 25.782C122.69 25.726 122.83 25.628 122.904 25.488C122.979 25.348 123.016 25.138 123.016 24.858V22.352C123.016 22.044 122.984 21.8247 122.918 21.694C122.853 21.554 122.722 21.4607 122.526 21.414C122.33 21.3673 122.008 21.344 121.56 21.344C121.178 21.344 120.884 21.3767 120.678 21.442C120.482 21.5073 120.347 21.61 120.272 21.75C120.207 21.89 120.174 22.0907 120.174 22.352V24.858C120.174 25.138 120.207 25.348 120.272 25.488C120.347 25.628 120.482 25.726 120.678 25.782C120.874 25.838 121.173 25.866 121.574 25.866ZM126.662 20.224H128.706V24.648L131.38 20.224H133.424V27H131.38V22.45L128.706 27H126.662V20.224ZM135.22 20.224H137.264V24.648L139.938 20.224H141.982V27H139.938V22.45L137.264 27H135.22V20.224ZM138.608 19.398C137.862 19.398 137.269 19.2113 136.83 18.838C136.392 18.4647 136.177 17.9653 136.186 17.34H137.628C137.656 17.7133 137.75 17.9887 137.908 18.166C138.067 18.3433 138.3 18.432 138.608 18.432C138.926 18.432 139.159 18.348 139.308 18.18C139.467 18.0027 139.56 17.7227 139.588 17.34H141.03C141.049 17.956 140.834 18.4553 140.386 18.838C139.948 19.2113 139.355 19.398 138.608 19.398Z" fill="black"/>
</svg>
