<svg width="36" height="36" viewBox="0 0 36 36" fill="none" xmlns="http://www.w3.org/2000/svg">
<rect x="0.5" y="0.5" width="35" height="35" rx="7.5" stroke="white" stroke-opacity="0.8"/>
<path d="M19.919 22.2622L22.5725 24.8238C23.116 25.3474 23.116 26.1978 22.5725 26.722C22.0294 27.2462 21.1493 27.2462 20.6069 26.722L17.998 24.2048L15.3914 26.722C15.1196 26.9838 14.7635 27.1149 14.4074 27.1149C14.0518 27.1149 13.6962 26.9838 13.4244 26.722C12.8814 26.1978 12.8814 25.348 13.4238 24.8238L16.0776 22.2622C15.1114 22.0497 14.1796 21.6802 13.3213 21.1604C12.6718 20.7651 12.4767 19.9369 12.8859 19.3094C13.2941 18.681 14.1523 18.4919 14.803 18.8872C16.7461 20.0671 19.2493 20.0674 21.1936 18.8872C21.8443 18.4919 22.7023 18.681 23.1112 19.3094C23.5205 19.9364 23.3248 20.7651 22.6753 21.1604C21.817 21.6807 20.8852 22.0497 19.919 22.2622Z" fill="white" fill-opacity="0.8"/>
<path fill-rule="evenodd" clip-rule="evenodd" d="M13.2402 13.9419C13.2402 16.4679 15.3691 18.5226 17.9868 18.5226C20.605 18.5226 22.7333 16.4679 22.7333 13.9419C22.7333 11.4151 20.605 9.35986 17.9868 9.35986C15.3691 9.35986 13.2402 11.4151 13.2402 13.9419ZM19.952 13.9414C19.952 12.8953 19.0705 12.0446 17.9867 12.0446C16.9038 12.0446 16.0214 12.8953 16.0214 13.9414C16.0214 14.9868 16.9038 15.838 17.9867 15.838C19.0705 15.838 19.952 14.9868 19.952 13.9414Z" fill="white" fill-opacity="0.8"/>
</svg>
